<svg width="50" height="51" viewBox="0 0 50 51" fill="none" xmlns="http://www.w3.org/2000/svg">
<g clip-path="url(#clip0_1_3930)">
<path d="M25 50.0444C38.8071 50.0444 50 38.8516 50 25.0444C50 11.2373 38.8071 0.0444336 25 0.0444336C11.1929 0.0444336 0 11.2373 0 25.0444C0 38.8516 11.1929 50.0444 25 50.0444Z" fill="#424242"/>
<path d="M27.6943 49.8995C38.4399 48.7479 47.1469 40.7885 49.4189 30.4189L33.299 14.299C33.299 14.299 20.111 13.9346 15.3473 21.7695L22.3671 28.8071L16.116 38.3939L27.6943 49.8995Z" fill="#232323"/>
<path d="M35.3982 38.3938H16.116V31.8851L28.4996 22.5098C30.0699 21.3209 29.6915 19.6632 29.5382 19.1834C29.3904 18.7213 28.7615 17.2088 26.8716 17.1536C26.8295 17.1524 26.7554 17.1518 26.7257 17.1516H24.536C21.3105 17.1516 21.0599 20.686 21.0599 21.7693H15.3474C15.3474 15.6869 19.1259 11.439 24.536 11.439L26.758 11.4391C26.758 11.4391 26.9447 11.4407 27.0377 11.4434C30.7316 11.5513 33.8487 13.9066 34.9796 17.4438C36.1249 21.0267 34.9348 24.8028 31.9478 27.0643L24.5287 32.6812H35.3983V38.3938H35.3982Z" fill="#F8FFFB"/>
<path d="M31.9476 27.0643L25.3781 32.0382V24.8729L28.4993 22.51C30.0694 21.3212 29.6911 19.6635 29.5384 19.1839C29.3907 18.721 28.7613 17.2091 26.8712 17.154C26.8288 17.153 26.755 17.1521 26.7254 17.1521H25.3781V11.4395H26.7579C26.7579 11.4395 26.9441 11.4414 27.0376 11.4434C30.7311 11.5517 33.8484 13.9066 34.9791 17.4445C36.1246 21.0267 34.9349 24.8029 31.9476 27.0643Z" fill="#D8D8D8"/>
<path d="M25.379 32.6812H35.3988V38.3937H25.379V32.6812Z" fill="#D8D8D8"/>
</g>
<defs>
<clipPath id="clip0_1_3930">
<rect width="50" height="50" fill="white" transform="translate(0 0.0444336)"/>
</clipPath>
</defs>
</svg>
