<svg width="50" height="51" viewBox="0 0 50 51" fill="none" xmlns="http://www.w3.org/2000/svg">
<path d="M25 50.0444C38.8071 50.0444 50 38.8516 50 25.0444C50 11.2373 38.8071 0.0444336 25 0.0444336C11.1929 0.0444336 0 11.2373 0 25.0444C0 38.8516 11.1929 50.0444 25 50.0444Z" fill="#07E5CA"/>
<path d="M25.2109 33.482L21.9442 30.5847L18.3865 35.5043L31.9486 49.0651C40.3553 46.6375 46.94 39.9168 49.1757 31.4304L31.9346 14.1895L16.1583 18.5323L23.0847 25.4438L22.7307 27.0195L28.1715 32.2812C28.1715 32.2812 26.3021 33.6838 25.2109 33.482Z" fill="#00B59B"/>
<path d="M31.9346 14.1893C30.3679 12.4433 27.7512 11.4009 24.9349 11.4009C24.3642 11.4009 23.7917 11.4533 23.2335 11.5567L23.0616 11.5885C21.3479 11.9051 19.7954 12.6928 18.5718 13.8662C17.3729 15.0168 16.5719 16.4619 16.2554 18.0452L16.1581 18.532L21.944 18.9698L22.0617 18.6657C22.397 17.7995 23.2054 17.1504 24.1713 16.9718L24.3433 16.94C25.4345 16.7385 26.5551 17.1065 27.2684 17.9015C28.2142 18.9551 28.1198 20.6478 27.0621 21.5979C26.5498 22.0582 24.0279 22.5897 23.189 22.5548L22.7307 22.5352V27.0193L23.189 26.9997C24.0334 26.9643 26.5499 27.4964 27.0622 27.9566C28.1198 28.9067 28.2142 30.5994 27.2683 31.6531C26.5551 32.4479 25.4344 32.8161 24.3432 32.6145L24.1714 32.5827C23.2054 32.4041 22.397 31.755 22.0617 30.8888L21.944 30.5847L16.1581 31.0225L16.2554 31.5093C16.5718 33.0926 17.3728 34.5377 18.5719 35.6884C19.7954 36.8618 21.3479 37.6494 23.0616 37.966L23.2333 37.9978C23.7917 38.1012 24.3642 38.1536 24.9349 38.1536C27.7512 38.1536 30.3679 37.1112 31.9345 35.3653C34.5744 32.4237 34.45 27.8504 31.7092 24.7772C34.45 21.7041 34.5745 17.1308 31.9346 14.1893Z" fill="#F8FFFB"/>
<path d="M31.709 24.7769C34.4502 27.8501 34.5742 32.4233 31.9346 35.3657C30.3799 37.0972 27.792 38.1372 25 38.1528V32.6675C25.8672 32.6509 26.6992 32.2886 27.2686 31.6528C28.2139 30.5991 28.1201 28.9067 27.0625 27.9565C26.7793 27.7026 25.8857 27.4263 25 27.2358V22.3179C25.8857 22.1274 26.7793 21.8521 27.0625 21.5981C28.1201 20.6479 28.2139 18.9556 27.2686 17.9019C26.6992 17.2661 25.8672 16.9038 25 16.8872V11.4019C27.792 11.4175 30.3799 12.4565 31.9346 14.189C34.5742 17.1304 34.4502 21.7036 31.709 24.7769Z" fill="#D8D8D8"/>
</svg>
