<svg width="50" height="50" viewBox="0 0 50 50" fill="none" xmlns="http://www.w3.org/2000/svg">
<g clip-path="url(#clip0_1_3899)">
<path d="M25 50C38.8071 50 50 38.8071 50 25C50 11.1929 38.8071 0 25 0C11.1929 0 0 11.1929 0 25C0 38.8071 11.1929 50 25 50Z" fill="#07E5CA"/>
<path d="M30.9622 49.2827C41.2279 46.7707 49.0052 37.9204 49.9103 27.1145L34.4463 11.6504L19.493 13.2487L15.4855 26.252L21.6318 32.2354L17.8488 36.21L30.9622 49.2827Z" fill="#00B59B"/>
<path d="M22.8602 17.3145L22.326 20.4453L24.5809 20.3389C27.1493 20.2168 29.6874 20.9854 31.5448 22.7637C35.1268 26.1934 35.4315 31.8525 32.2382 35.6465C30.3807 37.8535 27.6591 39.0908 24.8358 39.0908C24.2147 39.0908 23.5887 39.0312 22.9657 38.9082L22.7675 38.8691C20.8885 38.499 19.1874 37.5791 17.8485 36.21C16.5389 34.8701 15.6678 33.1943 15.3231 31.3555L21.0497 30.8936C21.494 32.1172 22.5604 33.0557 23.8632 33.3125L24.0614 33.3516C25.4921 33.6338 26.9647 33.1152 27.9042 31.999C29.1796 30.4844 29.0585 28.2246 27.6278 26.8545C26.8856 26.1436 25.8719 25.7656 24.8466 25.8125L15.4852 26.252L18.1298 11.6504H34.446V17.3145H22.8602Z" fill="#F8FFFB"/>
<path d="M31.5449 22.7637C35.127 26.1934 35.4316 31.8526 32.2383 35.6465C30.417 37.8106 27.7646 39.043 25 39.0889V33.4239C26.1104 33.3789 27.1699 32.8711 27.9043 31.9991C29.1797 30.4844 29.0586 28.2246 27.6279 26.8545C26.9229 26.1787 25.9727 25.8037 25 25.8086V20.3272C27.4238 20.3037 29.7881 21.0821 31.5449 22.7637Z" fill="#D8D8D8"/>
<path d="M25 11.6504H34.4463V17.3145H25V11.6504Z" fill="#D8D8D8"/>
</g>
<defs>
<clipPath id="clip0_1_3899">
<rect width="50" height="50" fill="white"/>
</clipPath>
</defs>
</svg>
