<svg width="50" height="50" viewBox="0 0 50 50" fill="none" xmlns="http://www.w3.org/2000/svg">
<g clip-path="url(#clip0_1_3855)">
<path d="M25 50C38.8071 50 50 38.8071 50 25C50 11.1929 38.8071 0 25 0C11.1929 0 0 11.1929 0 25C0 38.8071 11.1929 50 25 50Z" fill="#FFB54A"/>
<path d="M48.9231 32.2755L31.2669 14.6192C31.2669 14.6192 21.7555 14.0095 20.6556 19.7608C19.5558 25.5121 18.9442 36.6064 18.9442 36.6064L31.4864 49.1485C39.815 46.9169 46.4274 40.4926 48.9231 32.2755Z" fill="#F9880D"/>
<path d="M31.5405 24.5488C32.5263 23.2059 33.1103 21.5505 33.1103 19.7606C33.1103 15.2887 29.4721 11.6504 25.0002 11.6504C20.5282 11.6504 16.89 15.2887 16.89 19.7606C16.89 21.5505 17.474 23.206 18.4598 24.5488C16.9422 26.0357 15.9981 28.106 15.9981 30.3935C15.9981 34.8232 19.6019 38.4271 24.0318 38.4271H25.9687C30.3985 38.4271 34.0024 34.8233 34.0024 30.3935C34.0023 28.106 33.0582 26.0357 31.5405 24.5488ZM25.0002 17.3145C26.3489 17.3145 27.4463 18.4118 27.4463 19.7606C27.4463 21.1094 26.349 22.2067 25.0002 22.2067C23.6513 22.2067 22.5541 21.1095 22.5541 19.7606C22.5541 18.4118 23.6514 17.3145 25.0002 17.3145ZM25.9686 32.763H24.0317C22.7251 32.763 21.6621 31.7 21.6621 30.3934C21.6621 29.0023 22.7937 27.8707 24.1846 27.8707H25.8156C27.2065 27.8707 28.3381 29.0023 28.3381 30.3934C28.3382 31.7001 27.2753 32.763 25.9686 32.763Z" fill="#F8FFFB"/>
<path d="M31.54 24.5488C32.5264 23.2061 33.1104 21.5508 33.1104 19.7607C33.1104 15.2891 29.4717 11.6504 25 11.6504V17.3145C26.3486 17.3145 27.4463 18.4121 27.4463 19.7607C27.4463 21.1094 26.3486 22.207 25 22.207V27.8711H25.8154C27.2061 27.8711 28.3379 29.002 28.3379 30.3936C28.3379 31.7002 27.2754 32.7627 25.9688 32.7627H25V38.4268H25.9688C30.3984 38.4268 34.002 34.8232 34.002 30.3936C34.002 28.1055 33.0576 26.0361 31.54 24.5488Z" fill="#D8D8D8"/>
</g>
<defs>
<clipPath id="clip0_1_3855">
<rect width="50" height="50" fill="white"/>
</clipPath>
</defs>
</svg>
